<svg xmlns="http://www.w3.org/2000/svg" viewBox="0 0 100 100" role="img" aria-labelledby="title desc">
  <title id="title">Clubs</title>
  <desc id="desc">French suit symbol Clubs with three leaves and stem.</desc>
  <g fill="none" stroke-linecap="round" stroke-linejoin="round">
    <path
       id="clubs"
       style="fill:#222222;stroke:#e9ddaf;stroke-width:1.5;stroke-dasharray:none"
       d="m 50,14 c -8.836556,0 -16,7.163444 -16,16 1.16e-4,2.056474 0.396675,4.093644 1.167969,6 -0.05599,-2.94e-4 -0.11198,-2.94e-4 -0.167969,0 -8.836556,0 -16,7.163444 -16,16 0,8.836556 7.163444,16 16,16 4.395418,5.2e-5 8.597291,-1.808116 11.619141,-5 C 45.09302,66.164465 44,69.171488 44,74 c 0,3.255437 0.882786,5.922104 2.169922,8 H 42 v 4 H 58 V 82 H 53.830078 C 55.117214,79.922104 56,77.255437 56,74 56,69.171488 54.90698,66.164465 53.380859,63 56.402709,66.191884 60.604582,68.000052 65,68 73.836556,68 81,60.836556 81,52 81,43.163444 73.836556,36 65,36 64.944011,35.999706 64.88802,35.999706 64.832031,36 65.603325,34.093644 65.999884,32.056474 66,30 66,21.163444 58.836556,14 50,14 Z" />
  </g>
</svg>
